<?xml version="1.0" encoding="UTF-8"?>
<svg width="32" height="32" viewBox="0 0 32 32" fill="none" xmlns="http://www.w3.org/2000/svg">
  <!-- Sky Ride Favicon - Simplified Icon -->
  
  <!-- Cloud -->
  <path d="M8 20C6.34 20 5 18.66 5 17C5 15.34 6.34 14 8 14C8.35 14 8.69 14.06 9 14.17C9.6 12.36 11.18 11 13 11C15.21 11 17 12.79 17 15C17 15.35 16.94 15.69 16.83 16C18.28 16.19 19.4 17.42 19.4 18.9C19.4 20.5 18.1 21.8 16.5 21.8H8.2C8.13 21.93 8.07 22.07 8 22.2V20Z" fill="#152c46"/>
  
  <!-- Airplane -->
  <path d="M16 8L18 10L16 12L14 10L16 8ZM22 14L24 16L22 18L20 16L22 14ZM10 14L12 16L10 18L8 16L10 14Z" fill="#4670b5"/>
</svg>